{
  "title": "Kids (1995) DVD RIP Unrated ( Larry Clark Movie )",
  "uid": 9312101,
  "size": 1417102304,
  "categoryP": "video",
  "categoryS": "movies",
  "magnet": "?xt=urn:btih:339a99e4b28673342e98cbb308de2d70bb1d7665&amp;dn=+Kids+%281995%29+DVD+RIP+Unrated+%28+Larry+Clark+Movie+%29&amp;tr=udp%3A%2F%2Ftracker.openbittorrent.com%3A80&amp;tr=udp%3A%2F%2Fopen.demonii.com%3A1337&amp;tr=udp%3A%2F%2Ftracker.coppersurfer.tk%3A6969&amp;tr=udp%3A%2F%2Fexodus.desync.com%3A6969",
  "seeders": 130,
  "leechers": 12,
  "uploader": "filthy3825",
  "files": -1,
  "time": 1386374765,
  "description": " &lt;a href=&quot;http://www.imdb.com/title/tt0113540/&quot; rel=&quot;nofollow&quot; target=&quot;_NEW&quot;&gt;http://www.imdb.com/title/tt0113540/&lt;/a&gt;\n\n\nStoryline\n\nDisturbing, dark, low-budget independent film about teen-agers in New York City. The story focuses on Telly (Leo Fitzpatrick), a teen who has a goal to de-flower as many virgins as he can. When one of his old encounters discovers that she is H.I.V.-positive, after only one encounter with a guy, Telly remains undaunted. \n\n\normat                                   : MPEG-4\nFormat profile                           : Base Media / Version 2\nCodec ID                                 : mp42\nFile size                                : 1.32 GiB\nDuration                                 : 1h 31mn\nOverall bit rate mode                    : Variable\nOverall bit rate                         : 2 055 Kbps\nEncoded date                             : UTC 2013-11-23 06:50:50\nTagged date                              : UTC 2013-11-23 08:24:12\nWriting application                      : HandBrake 0.9.9 2013052900\n\nVideo\nID                                       : 1\nFormat                                   : AVC\nFormat/Info                              : Advanced Video Codec\nFormat profile                           : &lt;a class=&quot;__cf_email__&quot; href=&quot;/cdn-cgi/l/email-protection&quot; data-cfemail=&quot;1a52737d725a562f3428&quot;&gt;[email&amp;#160;protected]&lt;/a&gt;&lt;script data-cfhash='f9e31' type=&quot;text/javascript&quot;&gt;\n/* &lt;![CDATA[ */!function(){try{var t=&quot;currentScript&quot;in document?document.currentScript:function(){for(var t=document.getElementsByTagName(&quot;script&quot;),e=t.length;e--;)if(t[e].getAttribute(&quot;data-cfhash&quot;))return t[e]}();if(t&amp;&amp;t.previousSibling){var e,r,n,i,c=t.previousSibling,a=c.getAttribute(&quot;data-cfemail&quot;);if(a){for(e=&quot;&quot;,r=parseInt(a.substr(0,2),16),n=2;a.length-n;n+=2)i=parseInt(a.substr(n,2),16)^r,e+=String.fromCharCode(i);e=document.createTextNode(e),c.parentNode.replaceChild(e,c)}t.parentNode.removeChild(t);}}catch(u){}}()/* ]]&gt; */&lt;/script&gt;\nFormat settings, CABAC                   : Yes\nFormat settings, ReFrames                : 5 frames\nCodec ID                                 : avc1\nCodec ID/Info                            : Advanced Video Coding\nDuration                                 : 1h 31mn\nBit rate                                 : 1 948 Kbps\nWidth                                    : 720 pixels\nHeight                                   : 576 pixels\nDisplay aspect ratio                     : 16:9\nFrame rate mode                          : Constant\nFrame rate                               : 25.000 fps\nStandard                                 : PAL\nColor space                              : YUV\nChroma subsampling                       : 4:2:0\nBit depth                                : 8 bits\nScan type                                : Progressive\nBits/(Pixel*Frame)                       : 0.188\nStream size                              : 1.25 GiB (95%)\nWriting library                          : x264 core 130 r2273 b3065e6\nEncoding settings                        : cabac=1 / ref=5 / deblock=1:0:0 / \nEncoded date                             : UTC 2013-11-23 06:50:50\nTagged date                              : UTC 2013-11-23 08:24:12\nColor primaries                          : BT.601 PAL\nTransfer characteristics                 : BT.709\nMatrix coefficients                      : BT.601\n\nAudio\nID                                       : 2\nFormat                                   : AAC\nFormat/Info                              : Advanced Audio Codec\nFormat profile                           : LC\nCodec ID                                 : 40\nDuration                                 : 1h 31mn\nBit rate mode                            : Variable\nBit rate                                 : 96.0 Kbps\nMaximum bit rate                         : 143 Kbps\nChannel(s)                               : 2 channels\nChannel positions                        : Front: L R\nSampling rate                            : 48.0 KHz\nCompression mode                         : Lossy\nStream size                              : 63.0 MiB (5%)\nLanguage                                 : English\nEncoded date                             : UTC 2013-11-23 06:50:50\nTagged date                              : UTC 2013-11-23 08:24:11\n\n &lt;a href=&quot;\nhttp://postimg.org/image/g6wzk7s5r/&quot; rel=&quot;nofollow&quot; target=&quot;_NEW&quot;&gt;\nhttp://postimg.org/image/g6wzk7s5r/&lt;/a&gt;\n\n\n &lt;a href=&quot;\nhttp://postimg.org/image/mynen2h5b/&quot; rel=&quot;nofollow&quot; target=&quot;_NEW&quot;&gt;\nhttp://postimg.org/image/mynen2h5b/&lt;/a&gt;",
  "parsed": {
    "xt": "urn:btih:339a99e4b28673342e98cbb308de2d70bb1d7665",
    "dn": " Kids (1995) DVD RIP Unrated ( Larry Clark Movie )",
    "tr": [
      "udp://exodus.desync.com:6969",
      "udp://open.demonii.com:1337",
      "udp://tracker.coppersurfer.tk:6969",
      "udp://tracker.openbittorrent.com:80"
    ],
    "infoHash": "339a99e4b28673342e98cbb308de2d70bb1d7665",
    "infoHashBuffer": {
      "type": "Buffer",
      "data": [
        51,
        154,
        153,
        228,
        178,
        134,
        115,
        52,
        46,
        152,
        203,
        179,
        8,
        222,
        45,
        112,
        187,
        29,
        118,
        101
      ]
    },
    "name": " Kids (1995) DVD RIP Unrated ( Larry Clark Movie )",
    "announce": [
      "udp://exodus.desync.com:6969",
      "udp://open.demonii.com:1337",
      "udp://tracker.coppersurfer.tk:6969",
      "udp://tracker.openbittorrent.com:80"
    ],
    "urlList": []
  },
  "previous": 142,
  "peers": 0,
  "last_updated": "2016-12-24T21:45:51.728Z"
}